<svg width="17" height="18" viewBox="0 0 17 18" fill="none" xmlns="http://www.w3.org/2000/svg">
<path d="M2.30425 0.305798L2.43884 0.427094L8.50001 6.6139L14.5612 0.427094C15.1191 -0.142365 16.0237 -0.142365 16.5816 0.427094C17.0966 0.952749 17.1362 1.77989 16.7004 2.35192L16.5816 2.48929L10.5202 8.67587L16.5816 14.8624C17.1395 15.4319 17.1395 16.3552 16.5816 16.9246C16.0666 17.4503 15.2562 17.4907 14.6958 17.0459L14.5612 16.9246L8.50001 10.7378L2.43884 16.9246C1.88092 17.4941 0.976354 17.4941 0.418438 16.9246C-0.0965615 16.399 -0.136178 15.5719 0.29959 14.9998L0.418438 14.8624L6.47985 8.67587L0.418438 2.48929C-0.139478 1.91983 -0.139478 0.996553 0.418438 0.427094C0.933438 -0.0985601 1.74381 -0.138986 2.30425 0.305798Z" fill="black"/>
</svg>
