<svg width="28" height="28" viewBox="0 0 28 28" fill="none" xmlns="http://www.w3.org/2000/svg">
<path d="M1.52271 8.34415C1.52271 4.58343 4.5827 1.52344 8.34341 1.52344H19.6565C23.4173 1.52344 26.4773 4.58343 26.4773 8.34415V19.6573C26.4773 23.418 23.4173 26.478 19.6565 26.478H8.34341C4.5827 26.478 1.52271 23.418 1.52271 19.6573V8.34415ZM19.6565 3.85172H8.34341C5.86635 3.85172 3.85099 5.86708 3.85099 8.34415V19.6573C3.85099 22.1343 5.86635 24.1497 8.34341 24.1497H19.6565C22.1336 24.1497 24.149 22.1343 24.149 19.6573V8.34415C24.149 5.86708 22.1336 3.85172 19.6565 3.85172ZM20.2475 6.10683C20.4658 5.88851 20.7619 5.76586 21.0707 5.76586C21.3794 5.76586 21.6755 5.88851 21.8939 6.10683C22.1122 6.32515 22.2348 6.62125 22.2348 6.93C22.2348 7.23875 22.1122 7.53486 21.8939 7.75318C21.6755 7.97149 21.3794 8.09415 21.0707 8.09415C20.7619 8.09415 20.4658 7.97149 20.2475 7.75318C20.0292 7.53486 19.9065 7.23875 19.9065 6.93C19.9065 6.62125 20.0292 6.32515 20.2475 6.10683ZM7.17927 14.0007C7.17927 10.24 10.2393 7.18 14 7.18C17.7607 7.18 20.8207 10.24 20.8207 14.0007C20.8207 17.7614 17.7607 20.8214 14 20.8214C10.2393 20.8214 7.17927 17.7614 7.17927 14.0007ZM18.4924 14.0007C18.4924 11.5237 16.477 9.50829 14 9.50829C11.5229 9.50829 9.50756 11.5237 9.50756 14.0007C9.50756 16.4778 11.5229 18.4931 14 18.4931C16.477 18.4931 18.4924 16.4778 18.4924 14.0007Z" fill="white" stroke="#181818" stroke-width="0.5"/>
</svg>
