<svg width="16" height="16" viewBox="0 0 16 16" fill="none" xmlns="http://www.w3.org/2000/svg">
<path d="M7.20463 0C3.23269 0 0 3.19855 0 7.12855C0 11.0585 3.23269 14.2571 7.20463 14.2571C11.1766 14.2571 14.4093 11.0585 14.4093 7.12855C14.4093 3.19614 11.1766 0 7.20463 0ZM7.20463 13.2891C3.76944 13.2891 0.975907 10.5251 0.975907 7.12614C0.975907 3.72722 3.76944 0.963187 7.20463 0.963187C10.6398 0.963187 13.4333 3.72722 13.4333 7.12614C13.4333 10.5251 10.6374 13.2891 7.20463 13.2891Z" fill="white"/>
<path d="M13.8774 13.1703C13.6895 12.9795 13.3797 12.9771 13.1869 13.163C12.9942 13.3489 12.9918 13.6555 13.1796 13.8462L15.1631 15.8546C15.2583 15.9512 15.3852 15.9995 15.512 15.9995C15.634 15.9995 15.7584 15.9536 15.8536 15.8619C16.0463 15.676 16.0488 15.3694 15.8609 15.1787L13.8774 13.1703Z" fill="white"/>
</svg>
