<svg width="26" height="26" viewBox="0 0 26 26" fill="none" xmlns="http://www.w3.org/2000/svg">
<path d="M23.4323 12.99C23.4349 10.2077 22.3535 7.59044 20.3858 5.62166L20.3857 5.62154C18.4181 3.65549 15.7996 2.56922 13.0145 2.56792H13.0144C7.272 2.56792 2.5991 7.23908 2.59649 12.9797M23.4323 12.99L23.1823 12.9898M23.4323 12.99C23.4323 12.99 23.4323 12.9899 23.4323 12.9899L23.1823 12.9898M23.4323 12.99C23.4296 18.7331 18.7581 23.4042 13.0119 23.4042H13.0117C11.2737 23.4029 9.55182 22.9666 8.03438 22.1382L7.26087 21.7167L6.40678 21.9185L6.40676 21.9185L3.90083 22.5101L3.49308 22.6064L3.60198 22.2018L4.21355 19.9298L4.21364 19.9294L4.46246 19.0104L3.98741 18.1859C3.98737 18.1858 3.98733 18.1858 3.98729 18.1857C3.07682 16.6101 2.59518 14.809 2.59649 12.9797M23.1823 12.9898C23.1848 10.2738 22.1297 7.7202 20.209 5.79838L8.15418 21.9188C9.6345 22.7269 11.3152 23.1529 13.0119 23.1542C18.6201 23.1542 23.1797 18.5949 23.1823 12.9898ZM2.59649 12.9797L2.84649 12.9798M2.59649 12.9797L2.84649 12.9798M2.84649 12.9798C2.84521 14.7655 3.31541 16.5234 4.20386 18.0608L4.7309 18.9756L13.0144 2.81792C7.41002 2.81792 2.84903 7.3773 2.84649 12.9798ZM7.85374 7.67997L7.8534 7.68034C7.83459 7.70079 7.81381 7.72288 7.7914 7.74671C7.46816 8.09034 6.80566 8.79463 6.80566 10.1585C6.80566 10.8836 7.07132 11.6111 7.36775 12.1948C7.65868 12.7676 7.9686 13.1815 8.05049 13.2909L8.0535 13.2949L8.05365 13.2951C8.06745 13.3135 8.09231 13.3502 8.12791 13.4028C8.54868 14.024 10.4702 16.861 13.3721 18.0047L13.2804 18.2373L13.3721 18.0047C14.7057 18.5304 15.4913 18.7345 16.0069 18.8039C16.4145 18.8588 16.6518 18.831 16.8894 18.8032C16.9483 18.7963 17.0072 18.7894 17.0687 18.7838L17.0692 18.7838C17.3021 18.7629 17.7319 18.5957 18.1479 18.327C18.5671 18.0563 18.8979 17.7301 19.0015 17.4399C19.1265 17.0894 19.1884 16.7653 19.21 16.5174C19.2208 16.3933 19.2211 16.292 19.2155 16.2188C19.2116 16.1676 19.2056 16.1423 19.2039 16.1346C19.1938 16.1236 19.1651 16.0985 19.0886 16.0567C19.0309 16.0251 18.9681 15.9949 18.891 15.9578C18.8364 15.9315 18.7747 15.9018 18.7025 15.8657L18.7022 15.8656C18.5452 15.7868 18.0767 15.5559 17.6111 15.3315C17.1375 15.1033 16.6893 14.8929 16.5588 14.8456C16.4055 14.79 16.3333 14.774 16.2842 14.7795C16.2628 14.782 16.2148 14.7897 16.1363 14.9079C15.9139 15.2427 15.2949 15.969 15.1114 16.1776C14.9953 16.3102 14.8516 16.4167 14.6604 16.4409C14.4787 16.4639 14.2992 16.4061 14.1232 16.3182L14.1225 16.3178C14.0759 16.2943 14.0095 16.2655 13.9259 16.2292C13.4843 16.0374 12.561 15.6364 11.5131 14.7027C10.539 13.8351 9.8859 12.77 9.69593 12.4447L9.69577 12.4444C9.57309 12.2338 9.54996 12.0326 9.61973 11.8467C9.6789 11.6891 9.79736 11.5717 9.87125 11.4985C9.87335 11.4964 9.87542 11.4944 9.87745 11.4923L10.0535 11.6698M7.85374 7.67997L14.9237 16.0125C14.7378 16.2251 14.5532 16.2536 14.235 16.0945C14.1824 16.068 14.1105 16.0367 14.0216 15.998C13.5732 15.8026 12.6928 15.419 11.6794 14.5161C10.7349 13.6748 10.0976 12.6368 9.91181 12.3186C9.72724 12.0017 9.8944 11.8277 10.0535 11.6698M7.85374 7.67997C8.08993 7.42215 8.36199 7.36337 8.51714 7.36337H8.52837C8.73724 7.36337 8.93822 7.36337 9.1134 7.37061L9.11391 7.37063C9.22976 7.37519 9.29067 7.38144 9.3519 7.41698C9.41164 7.45166 9.50508 7.53611 9.61179 7.7729M7.85374 7.67997L7.6694 7.5111M10.0535 11.6698L9.87674 11.493C9.96205 11.4077 10.054 11.2951 10.1549 11.1716C10.2129 11.1005 10.2738 11.0259 10.3382 10.9508M10.0535 11.6698C10.147 11.5763 10.2537 11.4459 10.3609 11.3148C10.4172 11.246 10.4736 11.177 10.5283 11.113M10.3382 10.9508C10.3383 10.9506 10.3384 10.9505 10.3384 10.9504L10.5283 11.113M10.3382 10.9508C10.338 10.9509 10.3379 10.951 10.3378 10.9512L10.5283 11.113M10.3382 10.9508C10.4533 10.8151 10.4995 10.7214 10.5806 10.5571C10.5937 10.5306 10.6077 10.5023 10.623 10.4717C10.6772 10.3633 10.6596 10.2676 10.5953 10.1378C10.5575 10.0617 10.4239 9.733 10.2661 9.34458C10.2362 9.27103 10.2054 9.19534 10.1743 9.11881C9.97405 8.62683 9.75084 8.08232 9.61179 7.7729M10.5283 11.113C10.6647 10.9525 10.7241 10.8318 10.8059 10.6657C10.8188 10.6395 10.8322 10.6123 10.8466 10.5835C10.9522 10.3723 10.8981 10.1858 10.8192 10.0267C10.786 9.95979 10.6574 9.64333 10.4985 9.25235C10.2796 8.71402 10.0034 8.03439 9.83971 7.67019M9.61179 7.7729L9.83971 7.67019M9.61179 7.7729C9.61175 7.77283 9.61172 7.77275 9.61168 7.77267L9.83971 7.67019M9.83971 7.67019C9.60169 7.14201 9.3503 7.12974 9.12373 7.12083C8.94331 7.11336 8.73787 7.11337 8.53135 7.11337H8.51714C8.30457 7.11337 7.96088 7.19292 7.6694 7.5111M7.6694 7.5111C7.65087 7.53125 7.63019 7.55322 7.60772 7.5771C7.27669 7.92882 6.55566 8.69493 6.55566 10.1585C6.55566 11.7116 7.68008 13.2133 7.85027 13.4406L7.85337 13.4447L7.6694 7.5111ZM19.4234 16.0125C19.5023 16.1436 19.5017 16.7819 19.2369 17.5239C18.9722 18.2659 17.6744 18.9806 17.0915 19.0328L19.4234 16.0125ZM19.4234 16.0125C19.3601 15.9063 19.2111 15.8345 18.9903 15.7281M19.4234 16.0125L18.9903 15.7281M18.9903 15.7281C18.9359 15.7019 18.8772 15.6736 18.8143 15.6421L18.9903 15.7281ZM0.550784 12.98L0.550784 12.9799C0.553279 6.11043 6.14649 0.522461 13.0169 0.522461C16.3516 0.523709 19.4783 1.82067 21.8321 4.17541C24.1858 6.5314 25.4805 9.66155 25.478 12.9921V12.9921C25.4742 19.8605 19.8834 25.4497 13.0144 25.4497H13.0096C10.9228 25.4484 8.87342 24.927 7.05326 23.934L6.96922 23.8882L6.87605 23.9102L0.624055 25.3873L2.24011 19.3987L2.26716 19.2984L2.21526 19.2085C1.12477 17.3197 0.549536 15.1761 0.550784 12.98Z" fill="white" stroke="#181818" stroke-width="0.5"/>
</svg>
