<svg width="26" height="26" viewBox="0 0 26 26" fill="none" xmlns="http://www.w3.org/2000/svg">
<path d="M23.4315 12.991C23.4342 10.2087 22.3527 7.59142 20.3851 5.62263L20.385 5.62252C18.4174 3.65646 15.7989 2.5702 13.0138 2.56889H13.0136C7.27127 2.56889 2.59836 7.24006 2.59575 12.9806M23.4315 12.991L23.1815 12.9908M23.4315 12.991C23.4315 12.991 23.4315 12.9909 23.4315 12.9909L23.1815 12.9908M23.4315 12.991C23.4289 18.7341 18.7573 23.4052 13.0112 23.4052H13.011C11.2729 23.4039 9.55108 22.9676 8.03365 22.1392L7.26014 21.7177L6.40605 21.9194L6.40602 21.9194L3.9001 22.5111L3.49235 22.6073L3.60125 22.2028L4.21281 19.9308L4.21291 19.9304L4.46173 19.0114L3.98667 18.1869C3.98663 18.1868 3.9866 18.1867 3.98656 18.1867C3.07609 16.611 2.59445 14.81 2.59575 12.9806M23.1815 12.9908C23.1841 10.2748 22.129 7.72118 20.2082 5.79936L8.15345 21.9197C9.63377 22.7279 11.3145 23.1539 13.0112 23.1552C18.6193 23.1552 23.179 18.5959 23.1815 12.9908ZM2.59575 12.9806L2.84575 12.9808M2.59575 12.9806L2.84575 12.9808M2.84575 12.9808C2.84448 14.7665 3.31468 16.5243 4.20313 18.0618L4.73017 18.9766L13.0136 2.81889C7.40928 2.81889 2.8483 7.37828 2.84575 12.9808ZM7.85301 7.68095L7.85267 7.68132C7.83386 7.70177 7.81308 7.72386 7.79067 7.74768C7.46743 8.09132 6.80492 8.79561 6.80492 10.1594C6.80492 10.8846 7.07058 11.6121 7.36701 12.1957C7.65795 12.7686 7.96787 13.1825 8.04976 13.2918L8.05277 13.2958L8.05292 13.296C8.06672 13.3145 8.09157 13.3512 8.12717 13.4038C8.54795 14.025 10.4695 16.862 13.3713 18.0057L13.2797 18.2383L13.3713 18.0057C14.7049 18.5314 15.4905 18.7355 16.0062 18.8049C16.4137 18.8598 16.651 18.832 16.8887 18.8042C16.9475 18.7973 17.0064 18.7904 17.0679 18.7848L17.0685 18.7847C17.3013 18.7639 17.7311 18.5966 18.1472 18.328C18.5664 18.0572 18.8972 17.7311 19.0007 17.4408C19.1258 17.0903 19.1877 16.7662 19.2092 16.5184C19.2201 16.3942 19.2204 16.293 19.2148 16.2198C19.2108 16.1686 19.2048 16.1433 19.2032 16.1356C19.1931 16.1246 19.1644 16.0995 19.0878 16.0576C19.0301 16.0261 18.9673 15.9958 18.8903 15.9588C18.8357 15.9325 18.7739 15.9028 18.7018 15.8667L18.7014 15.8665C18.5445 15.7878 18.076 15.5569 17.6103 15.3325C17.1368 15.1043 16.6886 14.8938 16.5581 14.8465C16.4048 14.791 16.3326 14.7749 16.2834 14.7805C16.2621 14.7829 16.2141 14.7906 16.1355 14.9089C15.9132 15.2437 15.2941 15.97 15.1106 16.1786C14.9946 16.3112 14.8508 16.4177 14.6597 16.4419C14.4779 16.4649 14.2984 16.4071 14.1225 16.3191L14.1218 16.3188C14.0751 16.2953 14.0088 16.2664 13.9252 16.2301C13.4836 16.0383 12.5603 15.6373 11.5123 14.7037C10.5383 13.836 9.88517 12.7709 9.6952 12.4457L9.69504 12.4454C9.57236 12.2348 9.54923 12.0336 9.61899 11.8477C9.67817 11.69 9.79663 11.5727 9.87051 11.4995C9.87262 11.4974 9.87469 11.4953 9.87672 11.4933L10.0528 11.6708M7.85301 7.68095L14.9229 16.0135C14.7371 16.226 14.5525 16.2546 14.2343 16.0955C14.1817 16.069 14.1098 16.0377 14.0209 15.9989C13.5724 15.8035 12.6921 15.4199 11.6786 14.517C10.7342 13.6758 10.0969 12.6378 9.91107 12.3196C9.72651 12.0027 9.89367 11.8286 10.0528 11.6708M7.85301 7.68095C8.0892 7.42313 8.36126 7.36435 8.51641 7.36435H8.52764C8.7365 7.36434 8.93749 7.36434 9.11266 7.37159L9.11318 7.37161C9.22903 7.37617 9.28994 7.38241 9.35117 7.41796C9.4109 7.45264 9.50434 7.53709 9.61105 7.77388M7.85301 7.68095L7.66867 7.51207M10.0528 11.6708L9.87601 11.494C9.96132 11.4087 10.0533 11.2961 10.1541 11.1726C10.2121 11.1015 10.2731 11.0269 10.3374 10.9517M10.0528 11.6708C10.1463 11.5773 10.2529 11.4469 10.3602 11.3158C10.4164 11.247 10.4729 11.1779 10.5276 11.114M10.3374 10.9517C10.3375 10.9516 10.3376 10.9515 10.3377 10.9514L10.5276 11.114M10.3374 10.9517C10.3373 10.9519 10.3372 10.952 10.3371 10.9521L10.5276 11.114M10.3374 10.9517C10.4526 10.8161 10.4988 10.7224 10.5799 10.5581C10.593 10.5316 10.6069 10.5033 10.6222 10.4727C10.6764 10.3643 10.6589 10.2686 10.5945 10.1388C10.5567 10.0626 10.4232 9.73398 10.2653 9.34556C10.2354 9.27201 10.2047 9.19631 10.1735 9.11979C9.97332 8.62781 9.7501 8.08329 9.61105 7.77388M10.5276 11.114C10.664 10.9534 10.7234 10.8328 10.8052 10.6666C10.818 10.6405 10.8315 10.6132 10.8458 10.5845C10.9515 10.3732 10.8974 10.1868 10.8185 10.0277C10.7853 9.96076 10.6566 9.64431 10.4977 9.25332C10.2789 8.71499 10.0027 8.03537 9.83898 7.67116M9.61105 7.77388L9.83898 7.67116M9.61105 7.77388C9.61102 7.7738 9.61098 7.77373 9.61095 7.77365L9.83898 7.67116M9.83898 7.67116C9.60096 7.14298 9.34957 7.13071 9.123 7.1218C8.94258 7.11434 8.73714 7.11434 8.53062 7.11435H8.51641C8.30384 7.11435 7.96015 7.19389 7.66867 7.51207M7.66867 7.51207C7.65014 7.53222 7.62946 7.55419 7.60698 7.57807C7.27595 7.9298 6.55492 8.6959 6.55492 10.1594C6.55492 11.7126 7.67935 13.2143 7.84954 13.4415L7.85263 13.4457L7.66867 7.51207ZM19.4227 16.0135C19.5016 16.1446 19.501 16.7829 19.2362 17.5249C18.9715 18.2669 17.6737 18.9816 17.0908 19.0337L19.4227 16.0135ZM19.4227 16.0135C19.3593 15.9073 19.2103 15.8355 18.9895 15.7291M19.4227 16.0135L18.9895 15.7291M18.9895 15.7291C18.9352 15.7028 18.8764 15.6745 18.8136 15.6431L18.9895 15.7291ZM0.550051 12.981L0.550051 12.9809C0.552547 6.11141 6.14576 0.523438 13.0161 0.523438C16.3508 0.524685 19.4776 1.82165 21.8313 4.17638C24.185 6.53238 25.4797 9.66252 25.4772 12.9931V12.9931C25.4735 19.8615 19.8827 25.4506 13.0136 25.4506H13.0088C10.9221 25.4494 8.87268 24.9279 7.05253 23.935L6.96849 23.8892L6.87532 23.9112L0.623323 25.3883L2.23938 19.3997L2.26643 19.2994L2.21452 19.2095C1.12404 17.3207 0.548804 15.1771 0.550051 12.981Z" fill="white" stroke="#181818" stroke-width="0.5"/>
</svg>
