<svg width="26" height="26" viewBox="0 0 26 26" fill="none" xmlns="http://www.w3.org/2000/svg">
<path d="M23.4318 12.99C23.4344 10.2077 22.353 7.59044 20.3853 5.62166L20.3852 5.62154C18.4176 3.65549 15.7991 2.56922 13.014 2.56792H13.0139C7.27151 2.56792 2.59861 7.23908 2.596 12.9797M23.4318 12.99L23.1818 12.9898M23.4318 12.99C23.4318 12.99 23.4318 12.9899 23.4318 12.9899L23.1818 12.9898M23.4318 12.99C23.4291 18.7331 18.7576 23.4042 13.0114 23.4042H13.0112C11.2732 23.4029 9.55133 22.9666 8.03389 22.1382L7.26038 21.7167L6.40629 21.9185L6.40627 21.9185L3.90034 22.5101L3.4926 22.6064L3.60149 22.2018L4.21306 19.9298L4.21315 19.9294L4.46198 19.0104L3.98692 18.1859C3.98688 18.1858 3.98684 18.1858 3.9868 18.1857C3.07633 16.6101 2.59469 14.809 2.596 12.9797M23.1818 12.9898C23.1843 10.2738 22.1292 7.7202 20.2085 5.79838L8.15369 21.9188C9.63402 22.7269 11.3147 23.1529 13.0114 23.1542C18.6196 23.1542 23.1792 18.5949 23.1818 12.9898ZM2.596 12.9797L2.846 12.9798M2.596 12.9797L2.846 12.9798M2.846 12.9798C2.84473 14.7655 3.31492 16.5234 4.20337 18.0608L4.73042 18.9756L13.0139 2.81792C7.40953 2.81792 2.84854 7.3773 2.846 12.9798ZM7.85325 7.67997L7.85292 7.68034C7.8341 7.70079 7.81332 7.72288 7.79091 7.74671C7.46767 8.09034 6.80517 8.79463 6.80517 10.1585C6.80517 10.8836 7.07083 11.6111 7.36726 12.1948C7.65819 12.7676 7.96811 13.1815 8.05 13.2909L8.05301 13.2949L8.05316 13.2951C8.06696 13.3135 8.09182 13.3502 8.12742 13.4028C8.54819 14.024 10.4697 16.861 13.3716 18.0047L13.2799 18.2373L13.3716 18.0047C14.7052 18.5304 15.4908 18.7345 16.0064 18.8039C16.414 18.8588 16.6513 18.831 16.8889 18.8032C16.9478 18.7963 17.0067 18.7894 17.0682 18.7838L17.0687 18.7838C17.3016 18.7629 17.7314 18.5957 18.1474 18.327C18.5666 18.0563 18.8974 17.7301 19.001 17.4399C19.1261 17.0894 19.1879 16.7653 19.2095 16.5174C19.2203 16.3933 19.2207 16.292 19.215 16.2188C19.2111 16.1676 19.2051 16.1423 19.2034 16.1346C19.1933 16.1236 19.1646 16.0985 19.0881 16.0567C19.0304 16.0251 18.9676 15.9949 18.8905 15.9578C18.8359 15.9315 18.7742 15.9018 18.702 15.8657L18.7017 15.8656C18.5447 15.7868 18.0763 15.5559 17.6106 15.3315C17.137 15.1033 16.6888 14.8929 16.5583 14.8456C16.405 14.79 16.3328 14.774 16.2837 14.7795C16.2623 14.782 16.2143 14.7897 16.1358 14.9079C15.9134 15.2427 15.2944 15.969 15.1109 16.1776C14.9948 16.3102 14.8511 16.4167 14.6599 16.4409C14.4782 16.4639 14.2987 16.4061 14.1227 16.3182L14.122 16.3178C14.0754 16.2943 14.009 16.2655 13.9254 16.2292C13.4838 16.0374 12.5605 15.6364 11.5126 14.7027C10.5385 13.8351 9.88541 12.77 9.69544 12.4447L9.69528 12.4444C9.57261 12.2338 9.54947 12.0326 9.61924 11.8467C9.67842 11.6891 9.79687 11.5717 9.87076 11.4985C9.87286 11.4964 9.87493 11.4944 9.87697 11.4923L10.053 11.6698M7.85325 7.67997L14.9232 16.0125C14.7373 16.2251 14.5528 16.2536 14.2345 16.0945C14.1819 16.068 14.11 16.0367 14.0211 15.998C13.5727 15.8026 12.6924 15.419 11.6789 14.5161C10.7344 13.6748 10.0972 12.6368 9.91132 12.3186C9.72675 12.0017 9.89392 11.8277 10.053 11.6698M7.85325 7.67997C8.08944 7.42215 8.3615 7.36337 8.51665 7.36337H8.52788C8.73675 7.36337 8.93773 7.36337 9.11291 7.37061L9.11342 7.37063C9.22927 7.37519 9.29019 7.38144 9.35141 7.41698C9.41115 7.45166 9.50459 7.53611 9.6113 7.7729M7.85325 7.67997L7.66891 7.5111M10.053 11.6698L9.87625 11.493C9.96157 11.4077 10.0535 11.2951 10.1544 11.1716C10.2124 11.1005 10.2733 11.0259 10.3377 10.9508M10.053 11.6698C10.1465 11.5763 10.2532 11.4459 10.3604 11.3148C10.4167 11.246 10.4731 11.177 10.5279 11.113M10.3377 10.9508C10.3378 10.9506 10.3379 10.9505 10.338 10.9504L10.5279 11.113M10.3377 10.9508C10.3376 10.9509 10.3374 10.951 10.3373 10.9512L10.5279 11.113M10.3377 10.9508C10.4528 10.8151 10.4991 10.7214 10.5801 10.5571C10.5932 10.5306 10.6072 10.5023 10.6225 10.4717C10.6767 10.3633 10.6592 10.2676 10.5948 10.1378C10.557 10.0617 10.4234 9.733 10.2656 9.34458C10.2357 9.27103 10.2049 9.19534 10.1738 9.11881C9.97356 8.62683 9.75035 8.08232 9.6113 7.7729M10.5279 11.113C10.6642 10.9525 10.7236 10.8318 10.8054 10.6657C10.8183 10.6395 10.8317 10.6123 10.8461 10.5835C10.9517 10.3723 10.8976 10.1858 10.8187 10.0267C10.7855 9.95979 10.6569 9.64333 10.498 9.25235C10.2792 8.71402 10.0029 8.03439 9.83922 7.67019M9.6113 7.7729L9.83922 7.67019M9.6113 7.7729C9.61126 7.77283 9.61123 7.77275 9.61119 7.77267L9.83922 7.67019M9.83922 7.67019C9.6012 7.14201 9.34981 7.12974 9.12324 7.12083C8.94282 7.11336 8.73738 7.11337 8.53087 7.11337H8.51665C8.30408 7.11337 7.96039 7.19292 7.66891 7.5111M7.66891 7.5111C7.65038 7.53125 7.6297 7.55322 7.60723 7.5771C7.2762 7.92882 6.55517 8.69493 6.55517 10.1585C6.55517 11.7116 7.6796 13.2133 7.84978 13.4406L7.85288 13.4447L7.66891 7.5111ZM19.4229 16.0125C19.5018 16.1436 19.5012 16.7819 19.2364 17.5239C18.9717 18.2659 17.674 18.9806 17.091 19.0328L19.4229 16.0125ZM19.4229 16.0125C19.3596 15.9063 19.2106 15.8345 18.9898 15.7281M19.4229 16.0125L18.9898 15.7281M18.9898 15.7281C18.9354 15.7019 18.8767 15.6736 18.8138 15.6421L18.9898 15.7281ZM0.550296 12.98L0.550296 12.9799C0.552791 6.11043 6.146 0.522461 13.0164 0.522461C16.3511 0.523709 19.4778 1.82067 21.8316 4.17541C24.1853 6.5314 25.48 9.66155 25.4775 12.9921V12.9921C25.4737 19.8605 19.8829 25.4497 13.0139 25.4497H13.0091C10.9224 25.4484 8.87293 24.927 7.05277 23.934L6.96873 23.8882L6.87556 23.9102L0.623567 25.3873L2.23963 19.3987L2.26667 19.2984L2.21477 19.2085C1.12428 17.3197 0.549048 15.1761 0.550296 12.98Z" fill="white" stroke="#181818" stroke-width="0.5"/>
</svg>
