<svg width="28" height="28" viewBox="0 0 28 28" fill="none" xmlns="http://www.w3.org/2000/svg">
<path d="M24.4315 13.991C24.4342 11.2087 23.3527 8.59142 21.3851 6.62263L21.385 6.62252C19.4174 4.65646 16.7989 3.5702 14.0138 3.56889H14.0136C8.27127 3.56889 3.59836 8.24006 3.59575 13.9806M24.4315 13.991L24.1815 13.9908M24.4315 13.991C24.4315 13.991 24.4315 13.9909 24.4315 13.9909L24.1815 13.9908M24.4315 13.991C24.4289 19.7341 19.7573 24.4052 14.0112 24.4052H14.011C12.2729 24.4039 10.5511 23.9676 9.03365 23.1392L8.26014 22.7177L7.40605 22.9194L7.40602 22.9194L4.9001 23.5111L4.49235 23.6073L4.60125 23.2028L5.21281 20.9308L5.21291 20.9304L5.46173 20.0114L4.98667 19.1869C4.98663 19.1868 4.9866 19.1867 4.98656 19.1867C4.07609 17.611 3.59445 15.81 3.59575 13.9806M24.1815 13.9908C24.1841 11.2748 23.129 8.72118 21.2082 6.79936L9.15345 22.9197C10.6338 23.7279 12.3145 24.1539 14.0112 24.1552C19.6193 24.1552 24.179 19.5959 24.1815 13.9908ZM3.59575 13.9806L3.84575 13.9808M3.59575 13.9806L3.84575 13.9808M3.84575 13.9808C3.84448 15.7665 4.31468 17.5243 5.20313 19.0618L5.73017 19.9766L14.0136 3.81889C8.40928 3.81889 3.8483 8.37828 3.84575 13.9808ZM8.85301 8.68095L8.85267 8.68132C8.83386 8.70177 8.81308 8.72386 8.79067 8.74768C8.46743 9.09132 7.80492 9.79561 7.80492 11.1594C7.80492 11.8846 8.07058 12.6121 8.36701 13.1957C8.65795 13.7686 8.96787 14.1825 9.04976 14.2918L9.05277 14.2958L9.05292 14.296C9.06672 14.3145 9.09157 14.3512 9.12717 14.4038C9.54795 15.025 11.4695 17.862 14.3713 19.0057L14.2797 19.2383L14.3713 19.0057C15.7049 19.5314 16.4905 19.7355 17.0062 19.8049C17.4137 19.8598 17.651 19.832 17.8887 19.8042C17.9475 19.7973 18.0064 19.7904 18.0679 19.7848L18.0685 19.7847C18.3013 19.7639 18.7311 19.5966 19.1472 19.328C19.5664 19.0572 19.8972 18.7311 20.0007 18.4408C20.1258 18.0903 20.1877 17.7662 20.2092 17.5184C20.2201 17.3942 20.2204 17.293 20.2148 17.2198C20.2108 17.1686 20.2048 17.1433 20.2032 17.1356C20.1931 17.1246 20.1644 17.0995 20.0878 17.0576C20.0301 17.0261 19.9673 16.9958 19.8903 16.9588C19.8357 16.9325 19.7739 16.9028 19.7018 16.8667L19.7014 16.8665C19.5445 16.7878 19.076 16.5569 18.6103 16.3325C18.1368 16.1043 17.6886 15.8938 17.5581 15.8465C17.4048 15.791 17.3326 15.7749 17.2834 15.7805C17.2621 15.7829 17.2141 15.7906 17.1355 15.9089C16.9132 16.2437 16.2941 16.97 16.1106 17.1786C15.9946 17.3112 15.8508 17.4177 15.6597 17.4419C15.4779 17.4649 15.2984 17.4071 15.1225 17.3191L15.1218 17.3188C15.0751 17.2953 15.0088 17.2664 14.9252 17.2301C14.4836 17.0383 13.5603 16.6373 12.5123 15.7037C11.5383 14.836 10.8852 13.7709 10.6952 13.4457L10.695 13.4454C10.5724 13.2348 10.5492 13.0336 10.619 12.8477C10.6782 12.69 10.7966 12.5727 10.8705 12.4995C10.8726 12.4974 10.8747 12.4953 10.8767 12.4933L11.0528 12.6708M8.85301 8.68095L15.9229 17.0135C15.7371 17.226 15.5525 17.2546 15.2343 17.0955C15.1817 17.069 15.1098 17.0377 15.0209 16.9989C14.5724 16.8035 13.6921 16.4199 12.6786 15.517C11.7342 14.6758 11.0969 13.6378 10.9111 13.3196C10.7265 13.0027 10.8937 12.8286 11.0528 12.6708M8.85301 8.68095C9.0892 8.42313 9.36126 8.36435 9.51641 8.36435H9.52764C9.7365 8.36434 9.93749 8.36434 10.1127 8.37159L10.1132 8.37161C10.229 8.37617 10.2899 8.38241 10.3512 8.41796C10.4109 8.45264 10.5043 8.53709 10.6111 8.77388M8.85301 8.68095L8.66867 8.51207M11.0528 12.6708L10.876 12.494C10.9613 12.4087 11.0533 12.2961 11.1541 12.1726C11.2121 12.1015 11.2731 12.0269 11.3374 11.9517M11.0528 12.6708C11.1463 12.5773 11.2529 12.4469 11.3602 12.3158C11.4164 12.247 11.4729 12.1779 11.5276 12.114M11.3374 11.9517C11.3375 11.9516 11.3376 11.9515 11.3377 11.9514L11.5276 12.114M11.3374 11.9517C11.3373 11.9519 11.3372 11.952 11.3371 11.9521L11.5276 12.114M11.3374 11.9517C11.4526 11.8161 11.4988 11.7224 11.5799 11.5581C11.593 11.5316 11.6069 11.5033 11.6222 11.4727C11.6764 11.3643 11.6589 11.2686 11.5945 11.1388C11.5567 11.0626 11.4232 10.734 11.2653 10.3456C11.2354 10.272 11.2047 10.1963 11.1735 10.1198C10.9733 9.62781 10.7501 9.08329 10.6111 8.77388M11.5276 12.114C11.664 11.9534 11.7234 11.8328 11.8052 11.6666C11.818 11.6405 11.8315 11.6132 11.8458 11.5845C11.9515 11.3732 11.8974 11.1868 11.8185 11.0277C11.7853 10.9608 11.6566 10.6443 11.4977 10.2533C11.2789 9.71499 11.0027 9.03537 10.839 8.67116M10.6111 8.77388L10.839 8.67116M10.6111 8.77388C10.611 8.7738 10.611 8.77373 10.611 8.77365L10.839 8.67116M10.839 8.67116C10.601 8.14298 10.3496 8.13071 10.123 8.1218C9.94258 8.11434 9.73714 8.11434 9.53062 8.11435H9.51641C9.30384 8.11435 8.96015 8.19389 8.66867 8.51207M8.66867 8.51207C8.65014 8.53222 8.62946 8.55419 8.60698 8.57807C8.27595 8.9298 7.55492 9.6959 7.55492 11.1594C7.55492 12.7126 8.67935 14.2143 8.84954 14.4415L8.85263 14.4457L8.66867 8.51207ZM20.4227 17.0135C20.5016 17.1446 20.501 17.7829 20.2362 18.5249C19.9715 19.2669 18.6737 19.9816 18.0908 20.0337L20.4227 17.0135ZM20.4227 17.0135C20.3593 16.9073 20.2103 16.8355 19.9895 16.7291M20.4227 17.0135L19.9895 16.7291M19.9895 16.7291C19.9352 16.7028 19.8764 16.6745 19.8136 16.6431L19.9895 16.7291ZM1.55005 13.981L1.55005 13.9809C1.55255 7.11141 7.14576 1.52344 14.0161 1.52344C17.3508 1.52469 20.4776 2.82165 22.8313 5.17638C25.185 7.53238 26.4797 10.6625 26.4772 13.9931V13.9931C26.4735 20.8615 20.8827 26.4506 14.0136 26.4506H14.0088C11.9221 26.4494 9.87268 25.9279 8.05253 24.935L7.96849 24.8892L7.87532 24.9112L1.62332 26.3883L3.23938 20.3997L3.26643 20.2994L3.21452 20.2095C2.12404 18.3207 1.5488 16.1771 1.55005 13.981Z" fill="white" stroke="#181818" stroke-width="0.5"/>
</svg>
